# xmcd
#
# Track frame offsets:
#	150
#	10138
#	20727
#	31909
#	42048
#	57551
#	66127
#	75575
#	91506
#	108438
#	119273
#	130674
#	143115
#	155909
#	169486
#
# Disc length: 2415 seconds
#
# Revision: 1
# Processed by: cddbd v1.5.2PL0 Copyright (c) Steve Scherf et al.
# Submitted via: audiograbber 1.83.01
#
DISCID=c2096d0f
DTITLE=Various Artist - Mega Country Vol. II CD4
DYEAR=1998
DGENRE=Country
TTITLE0=Jim Reeves - He'll have to go
TTITLE1=Roger Milller - King Of The Road
TTITLE2=Don Gibson - A Legend In My Time
TTITLE3=Loretta Lynn - You're Looking At Country
TTITLE4=Dn Williams - Tears
TTITLE5=Wayln Jennings - Love's Gonna Live Here
TTITLE6=Charley Pride - Kiss An Angel Good Morning
TTITLE7=Mac Wiseman - 18 Wheels Hummin' Home Sweet Home
TTITLE8=Lynn Anderson - Blue Bayou
TTITLE9=Hank Locklin - Send Me The Pillow That You Dream On
TTITLE10=Johnny Cash - These Hands
TTITLE11=George Jones - Don't Be Angry
TTITLE12=Ferlin Husky - Behind Closed Doors
TTITLE13=Brenda Lee - You Don't Have To Say You Love Me
TTITLE14=Johnny Dollar - Big Wheels Sing For Me
EXTD=
EXTT0=
EXTT1=
EXTT2=
EXTT3=
EXTT4=
EXTT5=
EXTT6=
EXTT7=
EXTT8=
EXTT9=
EXTT10=
EXTT11=
EXTT12=
EXTT13=
EXTT14=
PLAYORDER=
